<svg width="122" height="28" viewBox="0 0 122 28" fill="none" xmlns="http://www.w3.org/2000/svg">
<g clip-path="url(#clip0_912_692)">
<path d="M15.539 10.4993C15.6857 10.2726 21.5035 0.927177 21.5035 0.927177C21.7431 0.538065 22.0015 0.385103 22.4632 0.391812H28.0292L32.7418 18.0146L2.79982 10.0512C2.73117 10.0338 2.66387 10.015 2.59791 9.99484C1.0459 9.54132 0 7.96609 0 6.35328C0 6.35328 15.36 10.4564 15.539 10.4993ZM24.7461 12.9642C24.376 11.3769 24.0408 9.9358 23.6652 8.32434C22.8589 9.66879 22.159 10.8375 21.4173 12.0746C22.5534 12.3778 23.5791 12.6515 24.7461 12.9642Z" fill="#FC4C02"/>
<path d="M56.3155 20.8202V16.9747H47.8743V11.562H62.0336V25.2413C59.6147 25.939 57.1689 26.7226 54.6814 27.3439C51.4656 28.1462 48.2095 28.2697 44.9762 27.3975C38.9054 25.7579 35.1203 20.8443 34.9776 14.4656C34.8793 10.0257 36.1675 6.16005 39.6902 3.22828C42.0606 1.25589 44.8483 0.311282 47.8851 0.0603714C51.8762 -0.269703 58.2027 0.890925 59.9216 1.24381C59.5514 3.16522 59.1718 5.14299 58.7936 7.11136C57.0572 6.87387 55.3813 6.61625 53.6974 6.42169C51.6244 6.18017 49.5501 6.00574 47.496 6.60149C43.6826 7.70576 41.568 11.079 42.1279 15.1875C42.665 19.1269 45.4944 21.6467 49.4626 21.7165C51.7846 21.7568 54.0447 21.3435 56.3141 20.8229L56.3155 20.8202Z" fill="#FC4C02"/>
<path d="M83.3796 11.1031V16.7962H71.5436V21.5434H85.155V27.3103H64.8657V0.598389H85.1658V6.35323H71.5463V11.1031H83.3782H83.3796Z" fill="#FC4C02"/>
<path d="M105.955 14.1596C109.196 18.5432 112.405 22.8852 115.669 27.3009C115.431 27.3277 115.269 27.3626 115.106 27.3626C112.888 27.3667 110.67 27.3814 108.451 27.3452C108.153 27.3398 107.762 27.152 107.575 26.9199C105.528 24.3826 103.514 21.8211 101.453 19.2181L95.334 26.8474C95.0137 27.2526 94.7 27.3814 94.206 27.3747C92.0994 27.3492 89.9942 27.364 87.8876 27.364C87.6735 27.364 87.4595 27.364 87.092 27.364L96.8268 14.1596L87.2643 0.583644C87.5995 0.567542 87.8122 0.548758 88.0249 0.548758C90.2661 0.546074 92.5059 0.564859 94.7471 0.533998C95.2613 0.527289 95.5521 0.703061 95.8415 1.10693L101.43 8.76574L107.002 1.06131C107.282 0.668175 107.578 0.532656 108.052 0.538024C110.27 0.562175 112.488 0.548758 114.707 0.548758C114.925 0.548758 115.144 0.548758 115.521 0.548758L105.955 14.1623V14.1596Z" fill="#FC4C02"/>
<path d="M35.2428 27.3775L15.4838 22.1057C14.6345 23.5333 13.7474 24.9207 12.9721 26.3685C12.5642 27.1306 12.1012 27.4271 11.2074 27.3909C9.20172 27.3077 7.19069 27.3654 5.05044 27.3654C6.50824 25.02 7.90142 22.7806 9.33633 20.4741C8.03064 20.1212 6.80033 19.8139 5.58483 19.4543C4.07993 19.0075 3.28306 17.7369 3.53746 16.0114L33.8375 24.0807C34.2696 24.1948 34.4728 24.38 34.5684 24.804C34.7542 25.6238 34.9911 26.4329 35.2414 27.3788L35.2428 27.3775Z" fill="#FC4C02"/>
<path d="M1.80106 11.1917L32.4093 19.3402C32.9895 19.4932 33.2627 19.7562 33.3745 20.3331C33.5198 21.0885 33.7567 21.8265 33.9869 22.6933C32.1899 22.2143 30.5141 21.7688 28.8382 21.322C20.6231 19.1309 12.4108 16.9358 4.19303 14.7554C2.86984 14.4038 2.01912 13.6471 1.80914 12.2731C1.76068 11.9578 1.80241 11.6304 1.80241 11.193L1.80106 11.1917Z" fill="#FC4C02"/>
<path d="M118.774 22.3149C117.361 22.3149 116.216 23.4568 116.216 24.8656C116.216 26.2745 117.361 27.4163 118.774 27.4163C120.188 27.4163 121.333 26.2745 121.333 24.8656C121.333 23.4568 120.188 22.3149 118.774 22.3149ZM118.774 27.0138C117.586 27.0138 116.619 26.0504 116.619 24.8656C116.619 23.6809 117.586 22.7175 118.774 22.7175C119.963 22.7175 120.93 23.6809 120.93 24.8656C120.93 26.0504 119.963 27.0138 118.774 27.0138Z" fill="#FC4C02"/>
<path d="M119.453 25.1742C119.609 25.1018 119.727 24.9971 119.811 24.8603C119.893 24.7234 119.935 24.5597 119.935 24.3692C119.935 24.1786 119.894 24.0149 119.814 23.8741C119.733 23.7332 119.614 23.6245 119.461 23.548C119.307 23.4715 119.122 23.4326 118.904 23.4326H117.769V26.3013H118.377V25.2843H118.822L119.367 26.3013H120.038L119.427 25.1863C119.437 25.1823 119.446 25.1796 119.454 25.1756L119.453 25.1742ZM118.375 23.9277H118.785C118.902 23.9277 118.999 23.9452 119.077 23.9787C119.154 24.0123 119.212 24.0619 119.25 24.1277C119.287 24.1934 119.306 24.2739 119.306 24.3692C119.306 24.4644 119.287 24.5423 119.25 24.6053C119.212 24.6684 119.154 24.7167 119.077 24.7489C119.001 24.7811 118.904 24.7972 118.788 24.7972H118.375V23.9291V23.9277Z" fill="#FC4C02"/>
</g>
<defs>
<clipPath id="clip0_912_692">
<rect width="121.333" height="28" fill="white"/>
</clipPath>
</defs>
</svg>
